<mxfile host="app.diagrams.net" agent="Mozilla/5.0 (Windows NT 10.0; Win64; x64) AppleWebKit/537.36 (KHTML, like Gecko) Chrome/128.0.0.0 Safari/537.36" version="24.7.12">
  <diagram name="Страница — 1" id="59_Xj-Uv8COttO5GndRY">
    <mxGraphModel dx="1372" dy="786" grid="1" gridSize="10" guides="1" tooltips="1" connect="1" arrows="1" fold="1" page="1" pageScale="1" pageWidth="827" pageHeight="1169" math="0" shadow="0">
      <root>
        <mxCell id="0" />
        <mxCell id="1" parent="0" />
        <mxCell id="GD41XOCNUY6HOv2m388n-53" value="&lt;font style=&quot;font-size: 14px;&quot;&gt;&lt;b&gt;TG Bot&lt;/b&gt;&lt;/font&gt;" style="rounded=0;whiteSpace=wrap;html=1;" vertex="1" parent="1">
          <mxGeometry x="360" y="561" width="160" height="80" as="geometry" />
        </mxCell>
        <mxCell id="GD41XOCNUY6HOv2m388n-54" value="" style="endArrow=classic;html=1;rounded=0;exitX=0.25;exitY=0;exitDx=0;exitDy=0;" edge="1" parent="1" source="GD41XOCNUY6HOv2m388n-53">
          <mxGeometry width="50" height="50" relative="1" as="geometry">
            <mxPoint x="400" y="551" as="sourcePoint" />
            <mxPoint x="400" y="481" as="targetPoint" />
          </mxGeometry>
        </mxCell>
        <mxCell id="GD41XOCNUY6HOv2m388n-55" value="" style="endArrow=classic;html=1;rounded=0;" edge="1" parent="1">
          <mxGeometry width="50" height="50" relative="1" as="geometry">
            <mxPoint x="480" y="481" as="sourcePoint" />
            <mxPoint x="480" y="561" as="targetPoint" />
          </mxGeometry>
        </mxCell>
        <mxCell id="GD41XOCNUY6HOv2m388n-56" value="&lt;font size=&quot;3&quot;&gt;&lt;b&gt;Kafka&lt;/b&gt;&lt;/font&gt;" style="rounded=0;whiteSpace=wrap;html=1;fillColor=#d5e8d4;strokeColor=#82b366;" vertex="1" parent="1">
          <mxGeometry x="360" y="401" width="160" height="80" as="geometry" />
        </mxCell>
        <mxCell id="GD41XOCNUY6HOv2m388n-57" value="&lt;font size=&quot;3&quot;&gt;&lt;b&gt;Crypto info Service&lt;/b&gt;&lt;/font&gt;" style="rounded=0;whiteSpace=wrap;html=1;" vertex="1" parent="1">
          <mxGeometry x="360" y="241" width="160" height="80" as="geometry" />
        </mxCell>
        <mxCell id="GD41XOCNUY6HOv2m388n-58" value="" style="endArrow=classic;html=1;rounded=0;exitX=0.25;exitY=0;exitDx=0;exitDy=0;" edge="1" parent="1">
          <mxGeometry width="50" height="50" relative="1" as="geometry">
            <mxPoint x="400" y="401" as="sourcePoint" />
            <mxPoint x="400" y="321" as="targetPoint" />
          </mxGeometry>
        </mxCell>
        <mxCell id="GD41XOCNUY6HOv2m388n-59" value="" style="endArrow=classic;html=1;rounded=0;" edge="1" parent="1">
          <mxGeometry width="50" height="50" relative="1" as="geometry">
            <mxPoint x="480" y="321" as="sourcePoint" />
            <mxPoint x="480" y="401" as="targetPoint" />
          </mxGeometry>
        </mxCell>
        <mxCell id="GD41XOCNUY6HOv2m388n-60" value="&lt;font size=&quot;3&quot;&gt;&lt;b&gt;Exchange API&lt;/b&gt;&lt;/font&gt;" style="rounded=0;whiteSpace=wrap;html=1;fillColor=#fff2cc;strokeColor=#d6b656;" vertex="1" parent="1">
          <mxGeometry x="600" y="81" width="160" height="80" as="geometry" />
        </mxCell>
        <mxCell id="GD41XOCNUY6HOv2m388n-61" value="&lt;font size=&quot;3&quot;&gt;&lt;b&gt;Common crypto API&lt;/b&gt;&lt;/font&gt;" style="rounded=0;whiteSpace=wrap;html=1;fillColor=#fff2cc;strokeColor=#d6b656;" vertex="1" parent="1">
          <mxGeometry x="360" y="81" width="160" height="80" as="geometry" />
        </mxCell>
        <mxCell id="GD41XOCNUY6HOv2m388n-62" value="" style="endArrow=classic;html=1;rounded=0;entryX=0;entryY=1;entryDx=0;entryDy=0;" edge="1" parent="1" target="GD41XOCNUY6HOv2m388n-60">
          <mxGeometry width="50" height="50" relative="1" as="geometry">
            <mxPoint x="520" y="241" as="sourcePoint" />
            <mxPoint x="570" y="191" as="targetPoint" />
          </mxGeometry>
        </mxCell>
        <mxCell id="GD41XOCNUY6HOv2m388n-63" value="" style="endArrow=classic;html=1;rounded=0;exitX=0.25;exitY=0;exitDx=0;exitDy=0;" edge="1" parent="1">
          <mxGeometry width="50" height="50" relative="1" as="geometry">
            <mxPoint x="439.5" y="241" as="sourcePoint" />
            <mxPoint x="439.5" y="161" as="targetPoint" />
          </mxGeometry>
        </mxCell>
        <mxCell id="GD41XOCNUY6HOv2m388n-64" value="&lt;font style=&quot;font-size: 16px;&quot;&gt;&lt;b style=&quot;&quot;&gt;Database&lt;/b&gt;&lt;/font&gt;" style="shape=cylinder3;whiteSpace=wrap;html=1;boundedLbl=1;backgroundOutline=1;size=15;fillColor=#e1d5e7;strokeColor=#9673a6;" vertex="1" parent="1">
          <mxGeometry x="600" y="361" width="120" height="80" as="geometry" />
        </mxCell>
        <mxCell id="GD41XOCNUY6HOv2m388n-65" value="" style="endArrow=classic;html=1;rounded=0;entryX=0;entryY=0;entryDx=0;entryDy=15;entryPerimeter=0;" edge="1" parent="1" target="GD41XOCNUY6HOv2m388n-64">
          <mxGeometry width="50" height="50" relative="1" as="geometry">
            <mxPoint x="520" y="321" as="sourcePoint" />
            <mxPoint x="570" y="271" as="targetPoint" />
          </mxGeometry>
        </mxCell>
        <mxCell id="GD41XOCNUY6HOv2m388n-67" value="&lt;div style=&quot;&quot;&gt;&lt;span style=&quot;background-color: initial; font-size: 16px; text-align: left;&quot;&gt;&amp;nbsp;&lt;/span&gt;&lt;br&gt;&lt;/div&gt;" style="text;html=1;align=center;verticalAlign=middle;resizable=0;points=[];autosize=1;strokeColor=none;fillColor=none;rotation=0;" vertex="1" parent="1">
          <mxGeometry x="140" y="51" width="30" height="30" as="geometry" />
        </mxCell>
        <mxCell id="GD41XOCNUY6HOv2m388n-68" value="&lt;font style=&quot;font-size: 16px;&quot;&gt;&lt;b&gt;Crypto info&lt;/b&gt; - приложение для получения информации о криптовалютах в общем,&lt;br&gt;а так же получение информации из личного кабинета пользователя на бирже.&lt;br&gt;&lt;br&gt;&lt;b&gt;Технологии&lt;/b&gt;:&lt;/font&gt;&lt;div&gt;&lt;font size=&quot;3&quot;&gt;Микросервисная архитектура, Java 17, Spring Boot, MongoDB,&amp;nbsp;&lt;/font&gt;&lt;/div&gt;&lt;div&gt;&lt;font size=&quot;3&quot;&gt;Gradle, Kafka, K8s, JUnit для&lt;/font&gt;&lt;/div&gt;&lt;div&gt;&lt;font size=&quot;3&quot;&gt;тестирования.&lt;/font&gt;&lt;/div&gt;&lt;div&gt;&lt;font size=&quot;3&quot;&gt;&lt;br&gt;&lt;/font&gt;&lt;/div&gt;" style="text;whiteSpace=wrap;html=1;" vertex="1" parent="1">
          <mxGeometry x="20" y="61" width="260" height="100" as="geometry" />
        </mxCell>
        <mxCell id="GD41XOCNUY6HOv2m388n-70" value="&lt;div&gt;&lt;span style=&quot;font-size: 16px;&quot;&gt;&lt;b&gt;Примерное флоу:&lt;/b&gt;&lt;/span&gt;&lt;/div&gt;&lt;div&gt;&lt;span style=&quot;font-size: 16px;&quot;&gt;Запрос начинается с отправки сообщения из тг бота в kafka. Client info service подписан на соответствующий топик. Читает сообщение из бота обрабатывает его и в зависимости от типа отправляет запрос на тот или иной API. API отвечает и сервис сохраняет необходимые данные в БД и затем отправляет сообщение в kafka. Тг бот вычитывает сообщение и отображает данные в телеграмме. Всего будет 3 отдельных микросервиса(бот, сервис, интеграции с API) и все они будут развернуты в кластере k8s.&lt;/span&gt;&lt;span style=&quot;font-size: 16px; background-color: initial;&quot;&gt;&amp;nbsp;&lt;/span&gt;&lt;/div&gt;" style="text;whiteSpace=wrap;html=1;" vertex="1" parent="1">
          <mxGeometry x="40" y="680" width="760" height="100" as="geometry" />
        </mxCell>
      </root>
    </mxGraphModel>
  </diagram>
</mxfile>
